<?xml version="1.0" encoding="UTF-8"?>
<svg xmlns="http://www.w3.org/2000/svg" xmlns:xlink="http://www.w3.org/1999/xlink" width="100pt" height="100pt" viewBox="0 0 100 100" version="1.1">
<g id="surface15657797">
<path style=" stroke:none;fill-rule:nonzero;fill:rgb(15%,0%,0%);fill-opacity:1;" d="M 50 2 C 38.929688 2 30 10.929688 30 22 L 30 26 L 14.1875 26 L 14 27.75 L 6 97.75 L 5.75 100 L 94.25 100 L 94 97.75 L 86 27.75 L 85.8125 26 L 70 26 L 70 22 C 70 10.929688 61.070312 2 50 2 Z M 50 6 C 58.929688 6 66 13.070312 66 22 L 66 26 L 34 26 L 34 22 C 34 13.070312 41.070312 6 50 6 Z M 17.8125 30 L 30 30 L 30 34.5625 C 28.804688 35.257812 28 36.523438 28 38 C 28 40.210938 29.789062 42 32 42 C 34.210938 42 36 40.210938 36 38 C 36 36.523438 35.195312 35.257812 34 34.5625 L 34 30 L 66 30 L 66 34.5625 C 64.804688 35.257812 64 36.523438 64 38 C 64 40.210938 65.789062 42 68 42 C 70.210938 42 72 40.210938 72 38 C 72 36.523438 71.195312 35.257812 70 34.5625 L 70 30 L 82.1875 30 L 89.75 96 L 10.25 96 Z M 17.8125 30 "/>
</g>
</svg>
