<svg width="25" height="24" viewBox="0 0 25 24" fill="none" xmlns="http://www.w3.org/2000/svg">
<path d="M23.8439 2.23572C24.0286 2.39499 24.1114 2.60522 24.0987 2.86006L20.2826 21.0614C20.1552 21.6857 19.7793 21.9979 19.155 21.9979C18.9129 21.9979 18.6899 21.9278 18.4797 21.7813L12.9052 17.6976L9.78356 20.6282C9.60518 20.7747 9.42043 20.8448 9.2293 20.8448C8.79609 20.8448 8.50941 20.66 8.36288 20.2905L6.15222 13.6203L0.673346 11.9129C0.335694 11.8174 0.144571 11.5753 0.0999756 11.193C0.0999756 10.8108 0.291099 10.5432 0.673346 10.4031C15.6574 4.79677 23.2004 2 23.296 2C23.4744 2 23.6591 2.07645 23.8439 2.23572ZM19.7857 5.77787C19.7921 5.73965 19.7984 5.70779 19.7984 5.69505C19.7984 5.54852 19.6965 5.47845 19.4863 5.47845C19.4353 5.47845 15.4344 8.02676 7.47734 13.117L9.15922 18.615L9.49688 15.1111C16.3455 8.93141 19.7729 5.8161 19.7857 5.77787Z" fill="white"/>
</svg>
