<svg width="24" height="24" viewBox="0 0 24 24" fill="none" xmlns="http://www.w3.org/2000/svg">
<g clip-path="url(#clip0)">
<path fill-rule="evenodd" clip-rule="evenodd" d="M12.3715 0.0207834C17.375 0.0427926 19.7729 1.56223 20.3285 2.07124C22.1745 3.66511 23.1149 7.4791 22.4272 13.0666C21.8282 17.946 18.5824 18.7092 17.4099 18.9848C17.2799 19.0154 17.1753 19.04 17.1027 19.0635C16.7944 19.1652 13.9274 19.8827 10.3239 19.6454C10.3239 19.6454 7.63825 22.9128 6.79938 23.7623C6.66843 23.894 6.51447 23.9476 6.41169 23.9224C6.26884 23.8868 6.22916 23.7143 6.22916 23.4622C6.23154 23.1016 6.25217 18.9995 6.25217 18.9995C1.1802 17.5785 1.29797 12.367 1.36482 9.40862C1.36712 9.30693 1.36936 9.2079 1.37132 9.11178C1.43045 6.21937 1.96972 3.84918 3.57048 2.25532C6.44661 -0.371781 12.3715 0.0207834 12.3715 0.0207834ZM11.8214 2.89194C11.6367 2.89064 11.4859 3.04062 11.4846 3.22692C11.4833 3.41323 11.632 3.56531 11.8168 3.5666C13.5976 3.57911 15.069 4.17056 16.2541 5.33561C17.4282 6.48982 18.0387 8.08068 18.0543 10.1499C18.0557 10.3362 18.2066 10.4861 18.3914 10.4847C18.5761 10.4833 18.7247 10.3311 18.7233 10.1448C18.7067 7.93653 18.0497 6.15851 16.7212 4.8525C15.4037 3.55731 13.7627 2.90557 11.8214 2.89194ZM12.0751 4.95459C12.0886 4.76878 12.2489 4.62917 12.4332 4.64277C13.838 4.74645 14.9687 5.23049 15.7923 6.13712L15.7924 6.13725C16.6071 7.03495 16.9942 8.1517 16.9661 9.46158C16.9621 9.64785 16.8092 9.79558 16.6245 9.79155C16.4398 9.78751 16.2933 9.63325 16.2973 9.44698C16.3221 8.29183 15.9852 7.34905 15.2988 6.59274C14.6146 5.83956 13.658 5.40966 12.3844 5.31565C12.2001 5.30206 12.0617 5.1404 12.0751 4.95459ZM12.9337 6.4527C12.7492 6.44299 12.5919 6.58595 12.5822 6.77201C12.5726 6.95806 12.7144 7.11676 12.8989 7.12646C13.4763 7.15684 13.8691 7.3269 14.1264 7.59524C14.3854 7.86523 14.5513 8.28061 14.5814 8.89077C14.5905 9.07685 14.7475 9.22021 14.932 9.21098C15.1166 9.20175 15.2587 9.04342 15.2496 8.85734C15.2145 8.14455 15.0148 7.55104 14.6073 7.1262C14.1983 6.69972 13.624 6.48902 12.9337 6.4527ZM12.9826 13.3923C12.9826 13.3923 13.4528 13.4323 13.706 13.1178L14.1996 12.4916C14.4377 12.181 15.0123 11.9829 15.575 12.2991C15.9966 12.5416 16.406 12.8052 16.8015 13.089C17.1018 13.3116 17.6549 13.7712 17.8614 13.9428L17.8615 13.9429C17.9118 13.9847 17.9415 14.0094 17.942 14.0094C18.3063 14.3195 18.3904 14.7749 18.1424 15.2551C18.1424 15.2566 18.1418 15.2586 18.1413 15.2605L18.1413 15.2605C18.1409 15.2623 18.1404 15.264 18.1404 15.2651C17.8672 15.7426 17.5205 16.1733 17.113 16.5408C17.1106 16.5421 17.1094 16.5434 17.1082 16.5446C17.1071 16.5458 17.106 16.5469 17.1039 16.548C16.75 16.8463 16.4022 17.0158 16.0607 17.0567C16.0104 17.0655 15.9593 17.0688 15.9083 17.0663C15.7577 17.0677 15.6079 17.0445 15.4647 16.9974L15.4536 16.981C14.9274 16.8314 14.0488 16.4568 12.5858 15.6429C11.7391 15.1774 10.9331 14.6405 10.1763 14.0378C9.79696 13.7359 9.43513 13.4123 9.09257 13.0686L8.98305 12.9581L8.97194 12.9471L8.95882 12.9338L8.94655 12.9213C8.60572 12.5759 8.28483 12.211 7.98546 11.8285C7.38793 11.0654 6.85548 10.2527 6.39382 9.39906C5.5867 7.92324 5.21528 7.03807 5.06687 6.50665L5.0506 6.49545C5.00408 6.35101 4.98116 6.19991 4.98274 6.04806C4.97996 5.99665 4.98303 5.9451 4.99187 5.8944C5.03446 5.55052 5.20284 5.19957 5.49702 4.84156C5.49815 4.83945 5.49929 4.83835 5.50043 4.83725C5.50167 4.83606 5.50292 4.83486 5.50416 4.83235C5.86856 4.4215 6.2956 4.0719 6.76921 3.79672C6.77036 3.79672 6.77205 3.79616 6.77381 3.79559L6.77381 3.79559C6.77571 3.79496 6.77769 3.79432 6.77913 3.79432C7.25531 3.54421 7.70689 3.62905 8.01403 3.9944C8.01641 3.9968 8.6533 4.76792 8.9267 5.14448C9.20814 5.54374 9.46957 5.95697 9.71002 6.3826C10.0235 6.94964 9.82708 7.53028 9.51915 7.76958L8.89813 8.26739C8.58465 8.52269 8.62592 8.99689 8.62592 8.99689C8.62592 8.99689 9.54574 12.5076 12.9826 13.3923Z" fill="white"/>
</g>
<defs>
<clipPath id="clip0">
<rect width="24" height="24" fill="white"/>
</clipPath>
</defs>
</svg>
