<svg width="24" height="24" viewBox="0 0 24 24" fill="none" xmlns="http://www.w3.org/2000/svg">
<path fill-rule="evenodd" clip-rule="evenodd" d="M1.69538 17.8374C0.649451 16.0338 0.099443 13.9875 0.100066 11.8919V11.892C0.102737 5.33477 5.46349 0 12.0501 0C15.2467 0.00141847 18.2471 1.23999 20.5031 3.48786C22.7594 5.73572 24.0013 8.72359 24 11.9012C23.9973 18.4586 18.6363 23.7938 12.0505 23.7938H12.0452C10.0453 23.7931 8.08021 23.2934 6.33489 22.3464L0 24L1.69538 17.8374ZM8.26243 6.20589C8.48286 6.21489 8.72675 6.22521 8.95844 6.73792C9.11688 7.08861 9.38352 7.74259 9.5959 8.2635C9.75221 8.64687 9.87914 8.95817 9.91192 9.02346C9.98924 9.1774 10.0408 9.35723 9.93769 9.56285C9.92227 9.59355 9.908 9.62254 9.89437 9.65023C9.81687 9.80769 9.75992 9.92337 9.62868 10.0763C9.57742 10.1359 9.52441 10.2001 9.4714 10.2643C9.36448 10.3937 9.25751 10.5233 9.16467 10.6155C9.00954 10.769 8.8484 10.9358 9.02881 11.2438C9.20936 11.552 9.83006 12.5599 10.7495 13.376C11.7373 14.2527 12.5954 14.6236 13.0311 14.8119C13.1167 14.8488 13.186 14.8788 13.2368 14.9041C13.5461 15.0581 13.7265 15.0325 13.907 14.8267C14.0875 14.6214 14.6798 13.928 14.8861 13.62C15.0923 13.3118 15.2985 13.3631 15.582 13.4657C15.8656 13.5684 17.3862 14.3134 17.6955 14.4674C17.7559 14.4974 17.8123 14.5245 17.8646 14.5497C18.0804 14.6534 18.2261 14.7234 18.2884 14.8267C18.3657 14.9555 18.3657 15.5717 18.108 16.2906C17.8502 17.0096 16.5874 17.703 16.0203 17.7543C15.9657 17.7592 15.9115 17.7656 15.8557 17.7721C15.3316 17.8335 14.6701 17.9109 12.3087 16.9839C9.40299 15.8431 7.48708 13.016 7.09156 12.4324C7.05917 12.3846 7.03697 12.3518 7.02526 12.3363L7.02185 12.3317C6.85517 12.11 5.76233 10.6562 5.76233 9.15179C5.76233 7.7338 6.46245 6.99051 6.78457 6.64853C6.80659 6.62515 6.82684 6.60365 6.84499 6.58393C7.12836 6.27582 7.4635 6.19871 7.66969 6.19871C7.68131 6.19871 7.69294 6.19871 7.70456 6.19871C7.89894 6.19868 8.09232 6.19866 8.26243 6.20589Z" fill="white"/>
</svg>
